# xmcd
#
# Track frame offsets: 
#        150
#        9633
#        23333
#        36486
#        50984
#        65114
#        76852
#        90969
#        105030
#        119486
#        133869
#        146120
#        158530
#        172333
#
# Disc length: 2495 seconds
#
# Revision: 0
# Processed by: cddbd v1.5.2PL0 Copyright (c) Steve Scherf et al.
# Submitted via: ExactAudioCopyFreeDBPlugin 1.0
#
DISCID=b909bd0e
DTITLE=Diverse - Big Band Favourites
DYEAR=2006
DGENRE=Big Band, Swing
TTITLE0=Tony Bennett With The Count Basie Orchestra - Jeepers Creepers
TTITLE1=Count Basie - Jumpin' At The Woodside
TTITLE2=Stan Kenton - Painted Rhythm
TTITLE3=Tommy Dorsey - On The Sunny Side Of The Street
TTITLE4=Duke Ellington - Perdidio
TTITLE5=Ella Fitzgerald With Chick Webb and His Orchestra - A- Tisket, A
TTITLE5=Tasket
TTITLE6=Bix Beiderbecke - Ostrich Walk
TTITLE7=Lionel Hampton Feat. Ella Fitzgerald - Flyn' Home #2
TTITLE8=Gene Krupa - Buggle Call Rag
TTITLE9=Count Basie - Lester Leaps In
TTITLE10=Stan Kenton and His Orchestra - Tampico
TTITLE11=Duke Ellington - Mood Indigo
TTITLE12=Artie Shaw and His Orchestra - Dancing In The Dark
TTITLE13=Woody Herman - Apple Honey
EXTD=
EXTT0=
EXTT1=
EXTT2=
EXTT3=
EXTT4=
EXTT5=
EXTT6=
EXTT7=
EXTT8=
EXTT9=
EXTT10=
EXTT11=
EXTT12=
EXTT13=
PLAYORDER=
